All The Episodes of Death Note( Complete Ep 1-37) at 480p Video Quality :)

Please seed after you download.

--------------------------------------------------------------------------------

Cover
--------------------------------------------------------------------------------
  
http://img197.imageshack.us/img197/3027/deathnote480pcursator.jpg
--------------------------------------------------------------------------------

Info
---------------------------------------------------------------------------------

General
--------

Format                                   : MPEG-4
Format profile                           : Base Media
Codec ID                                 : isom
File size                                : 50.7 MiB
Duration                                 : 22mn 59s
Overall bit rate mode                    : Variable
Overall bit rate                         : 308 Kbps

Video
------

ID                                       : 1
Format                                   : AVC
Format/Info                              : Advanced Video Codec
Format profile                           : Main@L3.0
Format settings, CABAC                   : Yes
Format settings, ReFrames                : 4 frames
Codec ID                                 : avc1
Codec ID/Info                            : Advanced Video Coding
Duration                                 : 22mn 59s
Bit rate                                 : 240 Kbps
Maximum bit rate                         : 1 566 Kbps
Width                                    : 640 pixels
Height                                   : 360 pixels
Display aspect ratio                     : 16:9
Frame rate mode                          : Constant
Frame rate                               : 23.976 fps
Color space                              : YUV
Chroma subsampling                       : 4:2:0
Bit depth                                : 8 bits
Scan type                                : Progressive
Bits/(Pixel*Frame)                       : 0.043
Stream size                              : 39.5 MiB (78%)
Writing library                          : x264 core 119 r2106 07efeb4

Audio
------

ID                                       : 2
Format                                   : AAC
Format/Info                              : Advanced Audio Codec
Format profile                           : LC
Codec ID                                 : 40
Duration                                 : 22mn 59s
Bit rate mode                            : Variable
Bit rate                                 : 64.0 Kbps
Maximum bit rate                         : 149 Kbps
Channel(s)                               : 2 channels
Channel positions                        : Front: L R
Sampling rate                            : 48.0 KHz
Compression mode                         : Lossy
Delay relative to video                  : 83ms
Stream size                              : 10.5 MiB (21%)

----------------------------------------------------------------------------------

Screenshots
----------------------------------------------------------------------------------
        
http://img10.imageshack.us/img10/6812/kurozuka1.png
        
http://img94.imageshack.us/img94/953/kurozuka2.png
        
http://img248.imageshack.us/img248/3977/kurozuka3.png
        
http://img443.imageshack.us/img443/6792/kurozuka4.png
        
http://img706.imageshack.us/img706/8582/kurozuka5.png
 
http://img542.imageshack.us/img542/9101/kurozuka6.png


----------------------------------------------------------------------------------

Story
----------------------------------------------------------------------------------

Kuro, a 12th-century man, flees into the mountains after losing to his brother, where he meets a strange, beautiful woman named Kuromitsu. Kuro falls in love with Kuromitsu but realizes she conceals a dark secret. She is unable to die and continues to live for thousands of years as Japan evolves into a future society.

----------------------------------------------------------------------------------

Thank you for downloading. 

Enjoy Watching :)				
		